<?xml version="1.0" encoding="utf-8"?>
<!-- Generator: Adobe Illustrator 28.1.0, SVG Export Plug-In . SVG Version: 6.00 Build 0)  -->
<svg version="1.1" id="Layer_1" xmlns="http://www.w3.org/2000/svg" xmlns:xlink="http://www.w3.org/1999/xlink" x="0px" y="0px"
	 viewBox="0 0 1575.5 737.7" style="enable-background:new 0 0 1575.5 737.7;" xml:space="preserve">
<style type="text/css">
	.st0{enable-background:new    ;}
	.st1{fill:#FCF6C1;}
</style>
<g class="st0">
	<path class="st1" d="M121.3,23.5v183.6c21.3-22.3,47.9-33.4,79.8-33.4c19,0,36.3,3.6,52.1,10.7c15.8,7.2,29.3,16.8,40.4,28.9
		c11.1,12.1,19.9,26.4,26.2,42.9c6.3,16.5,9.5,34,9.5,52.6c0,19-3.2,36.8-9.7,53.4c-6.5,16.6-15.6,31.1-27.2,43.4
		c-11.6,12.3-25.4,22-41.2,29.2c-15.8,7.1-32.9,10.7-51.1,10.7c-33.3,0-59.6-12.1-78.8-36.4v28.4H30.9V23.5H121.3z M235,310.4
		c0-8-1.5-15.5-4.5-22.7c-3-7.2-7.2-13.4-12.5-18.7c-5.3-5.3-11.5-9.6-18.5-12.7c-7-3.2-14.6-4.7-23-4.7c-8,0-15.5,1.5-22.5,4.5
		s-13.1,7.2-18.2,12.5c-5.2,5.3-9.3,11.6-12.5,18.7c-3.2,7.2-4.7,14.7-4.7,22.7c0,8,1.5,15.5,4.5,22.5s7.1,13.1,12.5,18.2
		c5.3,5.2,11.6,9.3,18.7,12.5c7.1,3.2,14.7,4.7,22.7,4.7s15.5-1.5,22.5-4.5c7-3,13.1-7.2,18.2-12.5c5.2-5.3,9.3-11.5,12.5-18.5
		C233.4,325.3,235,318,235,310.4z"/>
</g>
<g class="st0">
	<path class="st1" d="M563.4,181.6h90.8v256h-90.8v-28.4c-19.3,24.3-45.4,36.4-78.3,36.4c-18.6,0-35.8-3.4-51.4-10.2
		c-15.6-6.8-29.3-16.4-40.9-28.7c-11.6-12.3-20.7-26.8-27.2-43.4c-6.5-16.6-9.7-34.8-9.7-54.4c0-18.3,3.2-35.7,9.5-52.1
		c6.3-16.5,15.1-30.9,26.4-43.2c11.3-12.3,24.8-22,40.4-29.2c15.6-7.2,32.9-10.7,51.9-10.7c31.9,0,58.4,11.1,79.3,33.4V181.6z
		 M449.6,308.9c0,8.3,1.5,16.1,4.5,23.2c3,7.2,7.1,13.4,12.2,18.7c5.2,5.3,11.3,9.5,18.5,12.5c7.1,3,14.9,4.5,23.2,4.5
		c8,0,15.5-1.5,22.7-4.5c7.1-3,13.3-7.2,18.5-12.5c5.2-5.3,9.3-11.5,12.5-18.5c3.2-7,4.7-14.5,4.7-22.5c0-8-1.6-15.5-4.7-22.7
		c-3.2-7.2-7.3-13.4-12.5-18.7c-5.2-5.3-11.3-9.5-18.5-12.5c-7.2-3-14.7-4.5-22.7-4.5c-8.3,0-16.1,1.5-23.2,4.5
		c-7.2,3-13.3,7.2-18.5,12.5c-5.2,5.3-9.2,11.4-12.2,18.2C451.1,293.5,449.6,300.9,449.6,308.9z"/>
</g>
<g class="st0">
	<path class="st1" d="M816.4,257v180.6H726V257h-29.9v-75.3H726v-76.8h90.3v76.8h51.4V257H816.4z"/>
</g>
<g class="st0">
	<path class="st1" d="M1015.9,257v180.6h-90.3V257h-29.9v-75.3h29.9v-76.8h90.3v76.8h51.4V257H1015.9z"/>
</g>
<g class="st0">
	<path class="st1" d="M1200.1,23.5v414.2h-90.3V23.5H1200.1z"/>
</g>
<g class="st0">
	<path class="st1" d="M1328.3,324.8c0,38.9,18.3,58.4,54.9,58.4c19.6,0,34.4-8,44.4-24h87.3c-17.6,58.6-61.7,87.8-132.2,87.8
		c-21.6,0-41.4-3.2-59.4-9.7c-18-6.5-33.4-15.7-46.2-27.7c-12.8-12-22.7-26.3-29.7-42.9c-7-16.6-10.5-35.3-10.5-55.9
		c0-21.3,3.3-40.5,10-57.6c6.7-17.1,16.1-31.7,28.4-43.7c12.3-12,27.2-21.2,44.7-27.7c17.5-6.5,37.2-9.7,59.1-9.7
		c21.6,0,41.1,3.2,58.4,9.7c17.3,6.5,31.9,15.9,43.9,28.2c12,12.3,21.1,27.4,27.4,45.2c6.3,17.8,9.5,37.8,9.5,60.1v9.5H1328.3z
		 M1434.1,272.5c-3-12.6-9.2-22.8-18.5-30.4c-9.3-7.6-20.6-11.5-33.9-11.5c-14,0-25.4,3.7-34.2,11c-8.8,7.3-14.4,17.6-16.7,30.9
		H1434.1z"/>
</g>
<g class="st0">
	<path class="st1" d="M318.6,468.4v103c11.9-12.5,26.9-18.8,44.8-18.8c10.6,0,20.4,2,29.3,6c8.9,4,16.4,9.4,22.7,16.2
		c6.3,6.8,11.2,14.8,14.7,24.1c3.5,9.2,5.3,19.1,5.3,29.5c0,10.6-1.8,20.6-5.5,30c-3.6,9.3-8.7,17.5-15.3,24.4
		c-6.5,6.9-14.2,12.4-23.1,16.4c-8.9,4-18.4,6-28.7,6c-18.7,0-33.4-6.8-44.2-20.4v16H268V468.4H318.6z M382.5,629.4
		c0-4.5-0.8-8.7-2.5-12.7c-1.7-4-4-7.5-7-10.5c-3-3-6.4-5.4-10.4-7.1c-3.9-1.8-8.2-2.7-12.9-2.7c-4.5,0-8.7,0.8-12.6,2.5
		s-7.3,4-10.2,7c-2.9,3-5.2,6.5-7,10.5c-1.8,4-2.7,8.3-2.7,12.7c0,4.5,0.8,8.7,2.5,12.6c1.7,3.9,4,7.3,7,10.2c3,2.9,6.5,5.2,10.5,7
		c4,1.8,8.3,2.7,12.7,2.7s8.7-0.8,12.6-2.5c3.9-1.7,7.3-4,10.2-7c2.9-3,5.2-6.4,7-10.4C381.6,637.8,382.5,633.7,382.5,629.4z"/>
</g>
<g class="st0">
	<path class="st1" d="M464.2,557.1h50.7v23.5c5.4-8.6,12-15.2,19.9-19.7c7.8-4.6,17-6.9,27.4-6.9c1.3,0,2.8,0,4.3,0
		c1.6,0,3.4,0.2,5.5,0.6v48.4c-6.7-3.4-14-5-21.8-5c-11.8,0-20.6,3.5-26.5,10.5c-5.9,7-8.8,17.2-8.8,30.7v61.6h-50.7V557.1z"/>
</g>
<g class="st0">
	<path class="st1" d="M707.3,557.1h51v143.6h-51v-16c-10.8,13.6-25.5,20.4-44,20.4c-10.5,0-20.1-1.9-28.8-5.7
		c-8.8-3.8-16.4-9.2-23-16.1c-6.5-6.9-11.6-15-15.3-24.4c-3.6-9.3-5.5-19.5-5.5-30.5c0-10.3,1.8-20,5.3-29.3
		c3.5-9.2,8.5-17.3,14.8-24.2c6.3-6.9,13.9-12.4,22.7-16.4c8.8-4,18.5-6,29.1-6c17.9,0,32.8,6.3,44.5,18.8V557.1z M643.4,628.5
		c0,4.7,0.8,9,2.5,13c1.7,4,4,7.5,6.9,10.5c2.9,3,6.3,5.3,10.4,7c4,1.7,8.4,2.5,13,2.5c4.5,0,8.7-0.8,12.7-2.5c4-1.7,7.5-4,10.4-7
		c2.9-3,5.2-6.4,7-10.4c1.8-3.9,2.7-8.1,2.7-12.6c0-4.5-0.9-8.7-2.7-12.7c-1.8-4-4.1-7.5-7-10.5c-2.9-3-6.3-5.3-10.4-7
		c-4-1.7-8.3-2.5-12.7-2.5c-4.7,0-9,0.8-13,2.5c-4,1.7-7.5,4-10.4,7c-2.9,3-5.2,6.4-6.9,10.2C644.3,619.9,643.4,624.1,643.4,628.5z
		 M726,493l-48.7,43.1l-23.5-17.4l40-49L726,493z"/>
</g>
<g class="st0">
	<path class="st1" d="M835.2,557.1l34.2,73.6l34.7-73.6h56.6l-74.8,143.6H852l-73.9-143.6H835.2z"/>
</g>
<g class="st0">
	<path class="st1" d="M1017,637.5c0,21.8,10.3,32.8,30.8,32.8c11,0,19.3-4.5,24.9-13.4h49c-9.9,32.9-34.6,49.3-74.2,49.3
		c-12.1,0-23.2-1.8-33.3-5.5c-10.1-3.6-18.7-8.8-25.9-15.5c-7.2-6.7-12.7-14.7-16.7-24.1c-3.9-9.3-5.9-19.8-5.9-31.4
		c0-11.9,1.9-22.7,5.6-32.3c3.7-9.6,9.1-17.8,16-24.5c6.9-6.7,15.3-11.9,25.1-15.5s20.9-5.5,33.2-5.5c12.1,0,23.1,1.8,32.8,5.5
		c9.7,3.6,17.9,8.9,24.6,15.8c6.7,6.9,11.9,15.4,15.4,25.3c3.5,10,5.3,21.2,5.3,33.7v5.3H1017z M1076.3,608.1
		c-1.7-7.1-5.1-12.8-10.4-17.1c-5.2-4.3-11.6-6.4-19-6.4c-7.8,0-14.2,2.1-19.2,6.2c-4.9,4.1-8.1,9.9-9.4,17.4H1076.3z"/>
	<path class="st1" d="M1203.1,468.4v232.4h-50.7V468.4H1203.1z"/>
	<path class="st1" d="M1288.5,468.4v232.4h-50.7V468.4H1288.5z"/>
	<path class="st1" d="M1319.9,502c0-3.9,0.7-7.6,2.2-11.1c1.5-3.5,3.5-6.5,6.2-9.1c2.6-2.6,5.6-4.7,9.1-6.2
		c3.5-1.5,7.1-2.2,11.1-2.2s7.6,0.7,11.1,2.2c3.5,1.5,6.5,3.5,9.1,6.2c2.6,2.6,4.7,5.6,6.2,9.1c1.5,3.5,2.2,7.1,2.2,11.1
		s-0.7,7.6-2.2,11.1c-1.5,3.5-3.5,6.5-6.2,9.1c-2.6,2.6-5.6,4.7-9.1,6.2c-3.5,1.5-7.1,2.2-11.1,2.2s-7.6-0.7-11.1-2.2
		c-3.5-1.5-6.5-3.5-9.1-6.2c-2.6-2.6-4.7-5.6-6.2-9.1C1320.6,509.6,1319.9,505.9,1319.9,502z M1373.9,557.1v143.6h-50.7V557.1
		H1373.9z"/>
	<path class="st1" d="M1408.7,557.1h50.7v23.5c5.4-8.6,12-15.2,19.9-19.7c7.8-4.6,17-6.9,27.4-6.9c1.3,0,2.8,0,4.3,0
		c1.6,0,3.4,0.2,5.5,0.6v48.4c-6.7-3.4-14-5-21.8-5c-11.8,0-20.6,3.5-26.5,10.5c-5.9,7-8.8,17.2-8.8,30.7v61.6h-50.7V557.1z"/>
</g>
<g class="st0">
	<path class="st1" d="M161.1,701.4c-8.5,0-16.4-1.7-23.7-5.1c-7.4-3.4-13.8-8.2-19.2-14.3c-5.4-6.1-9.7-13.3-12.8-21.7
		c-3.1-8.4-4.7-17.6-4.7-27.5c0-9.8,1.5-18.9,4.6-27.3c3-8.4,7.3-15.7,12.7-21.9c5.4-6.2,11.9-11,19.4-14.4
		c7.5-3.4,15.8-5.1,24.9-5.1c9.1,0,17.4,1.8,24.9,5.2c7.5,3.5,14,8.3,19.4,14.4c5.4,6.1,9.6,13.4,12.6,22c3,8.6,4.5,17.8,4.5,27.8
		c0,9.8-1.5,18.9-4.5,27.2c-3,8.3-7.2,15.5-12.7,21.5c-5.5,6-12.1,10.7-19.7,14.2C179,699.7,170.5,701.4,161.1,701.4z M161.6,658.8
		c3.9,0,7.4-0.7,10.6-2.1c3.2-1.4,6-3.3,8.4-5.6c2.4-2.3,4.2-5.1,5.6-8.3c1.3-3.2,2-6.6,2-10.1c0-3.6-0.7-6.9-2-10.1
		c-1.3-3.2-3.2-5.9-5.6-8.3c-2.4-2.3-5.2-4.2-8.4-5.6c-3.2-1.4-6.7-2.1-10.4-2.1c-3.6,0-6.9,0.7-10.1,2.1c-3.2,1.4-6,3.3-8.4,5.6
		c-2.4,2.3-4.2,5.1-5.6,8.3c-1.3,3.2-2,6.6-2,10.1c0,3.6,0.7,7,2,10.1c1.3,3.2,3.2,5.9,5.6,8.3c2.4,2.3,5.1,4.2,8.3,5.6
		C154.7,658.1,158,658.8,161.6,658.8z"/>
	<path class="st1" d="M138.6,497.1h80.7v40.4h-80.7V552H105v-14.5H87.8c-9.5,0-17.1-0.9-22.7-2.7c-4.8-1.5-9.2-3.9-13.3-7.1
		c-4.1-3.3-7.6-7.1-10.6-11.5c-3-4.4-5.3-9.1-6.9-14.2c-1.6-5.1-2.5-10-2.5-14.9c0-3.4,0.4-6.6,1.1-9.5c0.7-2.9,1.8-5.8,3.1-8.8
		h35.2c-1.3,2.7-2.3,5.2-3,7.5c-0.7,2.3-1,4.7-1,7.2c0,1.6,0.3,3.3,0.8,5c0.5,1.7,1.6,3.3,3.2,4.8c1.6,1.5,4,2.5,7,3
		c3,0.5,7.2,0.8,12.4,0.8H105v-28.3h33.7V497.1z"/>
</g>
</svg>
