<?xml version="1.0" encoding="utf-8"?>
<!-- Generator: Adobe Illustrator 28.1.0, SVG Export Plug-In . SVG Version: 6.00 Build 0)  -->
<svg version="1.1" id="Layer_1" xmlns="http://www.w3.org/2000/svg" xmlns:xlink="http://www.w3.org/1999/xlink" x="0px" y="0px"
	 viewBox="0 0 1000 1000" style="enable-background:new 0 0 1000 1000;" xml:space="preserve">
<style type="text/css">
	.st0{fill:#D8871C;}
</style>
<path class="st0" d="M500,884.7c0,0-247.5-108.7-445.4-483.3c-4.7-9-1.2-20.1,7.9-24.7l105.8-52.9c9.3-4.7,20.7-0.5,24.8,9.1
	c21.2,50.3,83.2,185.1,150.5,186.8c0,0,76.1,2.2,75.2-387.9c0-9.9-0.9-16.9,8.9-16.9H500V884.7z"/>
<path class="st0" d="M498.8,884.7c0,0,247.5-108.7,445.4-483.3c4.7-9,1.2-20.1-7.9-24.7l-105.8-52.9c-9.3-4.7-20.7-0.5-24.8,9.1
	c-21.2,50.3-83.2,185.1-150.5,186.8c0,0-76.1,2.2-75.2-387.9c0-9.9,0.9-16.9-8.9-16.9h-72.2V884.7z"/>
</svg>
